<?xml version="1.0" encoding="utf-8"?>
<!-- Generator: Adobe Illustrator 21.0.0, SVG Export Plug-In . SVG Version: 6.00 Build 0)  -->
<svg version="1.1" id="Layer_1" xmlns="http://www.w3.org/2000/svg" xmlns:xlink="http://www.w3.org/1999/xlink" x="0px" y="0px"
	 viewBox="0 0 272 31.3" style="enable-background:new 0 0 272 31.3;" xml:space="preserve">
<g>
	<g>
		<path d="M10.4,30.9H0V0h10.4c6.4,0,9.9,4.1,9.9,9.3V22C20.2,27.2,16.8,30.9,10.4,30.9z M13.6,9.4c0-2.5-1.2-3.9-3.7-3.9H6.7v19.9
			h3.2c2.6,0,3.7-1.4,3.7-3.9V9.4z"/>
		<path d="M39,31.3c-2.2,0-3.8-0.9-4.2-3.2c-1.3,2.1-3.4,3.2-6,3.2c-3.3,0-5.8-2.2-5.8-6V25c0-4.8,4.3-6.4,10.5-7.4v-3
			c0-1.3-0.7-2.1-2.2-2.1c-1.6,0-2.1,0.7-2.1,2.2v1.3H24V15c0-3.8,2.3-6.8,7.6-6.8c5.3,0,7.5,3.2,7.5,7.5v10.5
			c0,0.8,0.4,1.2,1.3,1.2v3.9H39z M33.5,20.6c-3.5,0.5-5.1,1.5-5.1,3.7v0.8c0,1.3,0.8,2.2,2.2,2.2c1.6,0,2.9-1,2.9-2.5V20.6z"/>
		<path d="M50.6,13.3v10.5c0,2.9,0.3,5.1,1.5,7.2h-6c-0.9-1.9-1.2-3.9-1.2-7.2V13.3H42V8.9h3.2V4.8l5.5-1.3v5.4h3.5v4.4H50.6z"/>
		<path d="M71.6,31.3c-2.2,0-3.8-0.9-4.2-3.2c-1.3,2.1-3.4,3.2-6,3.2c-3.3,0-5.8-2.2-5.8-6V25c0-4.8,4.3-6.4,10.5-7.4v-3
			c0-1.3-0.7-2.1-2.2-2.1c-1.6,0-2.1,0.7-2.1,2.2v1.3h-5.2V15c0-3.8,2.3-6.8,7.6-6.8c5.3,0,7.5,3.2,7.5,7.5v10.5
			c0,0.8,0.4,1.2,1.3,1.2v3.9H71.6z M66.1,20.6c-3.5,0.5-5.1,1.5-5.1,3.7v0.8c0,1.3,0.8,2.2,2.2,2.2c1.6,0,2.9-1,2.9-2.5V20.6z"/>
		<path d="M87.8,5.7v25.3h-6.7V5.7h-6.7V0h20.1v5.7H87.8z"/>
		<path d="M101.6,31.3c-4.8,0-8-2.9-8-7.9v-7.2c0-4.9,3.2-8,8-8c4.7,0,7.9,3.1,7.9,8v7.2C109.5,28.4,106.3,31.3,101.6,31.3z
			 M104,15.1c0-1.6-1-2.6-2.5-2.6c-1.6,0-2.5,1.1-2.5,2.6v9.3c0,1.6,0.9,2.6,2.5,2.6c1.5,0,2.5-1.1,2.5-2.6V15.1z"/>
		<path d="M121.1,31.3c-4.8,0-8-2.9-8-7.9v-7.2c0-4.9,3.2-8,8-8c4.7,0,7.9,3.1,7.9,8v7.2C129,28.4,125.8,31.3,121.1,31.3z
			 M123.6,15.1c0-1.6-1-2.6-2.5-2.6c-1.6,0-2.5,1.1-2.5,2.6v9.3c0,1.6,0.9,2.6,2.5,2.6c1.5,0,2.5-1.1,2.5-2.6V15.1z"/>
		<path d="M132.9,30.9V0h5.7v30.9H132.9z"/>
		<path d="M150,31.3c-5.1,0-7.9-3-7.9-7v-0.8h4.8v0.8c0,2,1.2,2.9,2.9,2.9c1.7,0,2.7-0.7,2.7-2.2c0-2-1.9-2.7-5-4
			c-3.1-1.3-5-2.9-5-6.2c0-4,3.1-6.6,7.5-6.6c4.8,0,7.4,2.8,7.4,6.7v0.4h-4.7v-0.6c0-1.4-0.8-2.3-2.7-2.3c-1.5,0-2.4,0.7-2.4,2
			c0,1.3,1.1,2,3.8,3.1c3.5,1.3,6.2,3.2,6.2,7.2C157.6,27.9,155.2,31.3,150,31.3z"/>
		<path d="M176.6,24.2v6.8h-5.6v-6.8h-11.4v-4.3L171.3,0h5.2v19.2h2.9v4.9H176.6z M170.9,9.5l-5.7,9.8h5.7V9.5z"/>
		<path d="M196.8,30.9V18.5h-7.7v12.4h-6.7V0h6.7v12.8h7.7V0h6.7v30.9H196.8z"/>
		<path d="M215.5,31.3c-4.8,0-8-3.1-8-7.8V16c0-4.6,3.2-7.8,8-7.8c4.8,0,7.8,3.2,7.8,7.8v4.1H213v4.3c0,1.6,0.8,2.6,2.5,2.6
			c1.8,0,2.6-1.1,2.6-2.6v-1.6h5.1v0.8C223.3,28.2,220.3,31.3,215.5,31.3z M218,15.1c0-1.6-0.9-2.6-2.5-2.6c-1.5,0-2.5,1.1-2.5,2.6
			v2.8h5V15.1z"/>
		<path d="M241.9,31.3c-2.2,0-3.8-0.9-4.2-3.2c-1.3,2.1-3.4,3.2-6,3.2c-3.3,0-5.8-2.2-5.8-6V25c0-4.8,4.3-6.4,10.5-7.4v-3
			c0-1.3-0.7-2.1-2.2-2.1c-1.6,0-2.1,0.7-2.1,2.2v1.3h-5.2V15c0-3.8,2.3-6.8,7.6-6.8c5.3,0,7.5,3.2,7.5,7.5v10.5
			c0,0.8,0.4,1.2,1.3,1.2v3.9H241.9z M236.4,20.6c-3.5,0.5-5.1,1.5-5.1,3.7v0.8c0,1.3,0.8,2.2,2.2,2.2c1.6,0,2.9-1,2.9-2.5V20.6z"/>
		<path d="M252,17v14h-5.7V8.6h4.7l0.4,4.4c1-3.9,3.4-5.3,6.6-4.6V14C253.6,13.3,252,14.9,252,17z"/>
		<path d="M268.5,13.3v10.5c0,2.9,0.3,5.1,1.5,7.2h-6c-0.9-1.9-1.2-3.9-1.2-7.2V13.3h-2.9V8.9h3.2V4.8l5.5-1.3v5.4h3.5v4.4H268.5z"
			/>
	</g>
</g>
</svg>
