<?xml version="1.0" standalone="no"?>
<!DOCTYPE svg PUBLIC "-//W3C//DTD SVG 20010904//EN"
 "http://www.w3.org/TR/2001/REC-SVG-20010904/DTD/svg10.dtd">
<svg version="1.0" xmlns="http://www.w3.org/2000/svg"
 width="782.000000pt" height="782.000000pt" viewBox="0 0 782.000000 782.000000"
 preserveAspectRatio="xMidYMid meet">
<metadata>
Created by potrace 1.14, written by Peter Selinger 2001-2017
</metadata>
<g transform="translate(0.000000,782.000000) scale(0.100000,-0.100000)"
fill="#000000" stroke="none">
<path d="M4805 6068 c-2 -7 -11 -81 -21 -164 l-17 -152 -88 -21 c-49 -12 -105
-28 -126 -35 l-37 -13 -91 121 c-49 67 -95 127 -101 135 -9 12 -38 -1 -165
-74 -85 -49 -160 -93 -166 -99 -10 -9 2 -45 52 -162 l65 -150 -99 -101 c-86
-88 -241 -296 -241 -325 0 -22 -19 -3 -45 43 -77 143 -229 312 -378 423 -542
403 -1295 357 -1784 -107 -208 -197 -346 -446 -409 -738 -26 -119 -26 -419 0
-539 59 -271 203 -553 423 -830 93 -116 392 -416 528 -529 414 -344 1043 -741
1532 -966 l122 -56 123 57 c243 112 596 309 883 493 546 349 977 729 1254
1104 40 54 76 97 80 95 4 -2 69 -30 144 -62 75 -33 139 -57 141 -55 11 13 186
320 186 327 0 4 -58 51 -130 103 -103 75 -129 98 -126 114 3 11 17 71 33 132
26 106 29 113 53 113 14 0 89 7 168 17 l142 17 0 192 0 192 -37 6 c-21 3 -96
13 -168 22 -71 8 -130 16 -131 17 -1 3 -56 209 -61 232 -3 16 16 35 94 92 54
39 113 84 132 101 l35 29 -93 161 c-51 89 -100 162 -107 162 -8 0 -77 -27
-154 -60 -77 -33 -142 -60 -144 -60 -2 0 -44 41 -95 91 l-91 92 65 151 c60
140 64 152 47 164 -9 7 -84 52 -166 99 -123 71 -151 84 -160 72 -6 -8 -52 -68
-101 -135 l-91 -121 -37 13 c-21 7 -77 23 -126 35 l-88 21 -18 151 c-9 83 -19
157 -22 164 -7 18 -382 19 -388 1z m380 -629 c150 -26 336 -106 457 -198 381
-290 530 -775 373 -1222 -149 -427 -564 -719 -1021 -719 -101 0 -95 3 -98 -54
-1 -7 27 -37 62 -66 34 -28 62 -55 62 -60 0 -10 -97 -180 -110 -194 -5 -5 -42
3 -87 19 l-79 27 -77 -57 -77 -58 7 -87 c5 -80 4 -88 -13 -94 -74 -22 -208
-55 -214 -51 -4 2 -22 38 -40 80 -32 74 -33 75 -70 75 -20 0 -63 5 -94 12
l-58 11 -41 -48 c-23 -27 -49 -57 -57 -68 -15 -18 -19 -16 -115 39 -55 31
-102 58 -103 60 -2 1 9 41 24 87 l28 86 -35 38 c-19 21 -44 54 -56 74 l-22 35
-86 -9 c-48 -5 -88 -7 -90 -5 -2 2 -17 54 -34 116 l-30 112 80 40 c74 38 79
42 79 73 0 17 6 59 13 93 l13 61 -68 57 c-78 65 -78 44 4 183 l48 82 82 -29
82 -28 68 53 c37 29 72 55 76 57 11 4 -1 103 -24 198 -27 112 -25 336 4 453
49 197 132 353 262 490 109 115 190 176 315 238 213 105 430 137 660 98z"/>
<path d="M4937 4730 c-209 -35 -343 -256 -279 -457 90 -285 469 -344 636 -100
179 262 -44 609 -357 557z"/>
<path d="M4171 3624 c-148 -74 -173 -281 -48 -391 110 -97 276 -76 361 45 25
35 31 55 34 112 5 84 -9 130 -57 183 -73 81 -188 101 -290 51z"/>
</g>
</svg>
